<svg width="192" height="54" fill="none" xmlns="http://www.w3.org/2000/svg"><rect width="192" height="54" rx="20" fill="#A8C7D0"/><path d="M32.006 33.5V22.475h2.655c.99 0 1.83.11 2.52.33.7.22 1.275.515 1.725.885.45.36.8.775 1.05 1.245.26.46.44.94.54 1.44.1.49.15.965.15 1.425 0 .69-.1 1.375-.3 2.055-.19.67-.51 1.28-.96 1.83-.45.55-1.055.99-1.815 1.32-.75.33-1.69.495-2.82.495h-2.745zm1.68-1.485h1.245c.74 0 1.36-.115 1.86-.345.51-.23.915-.54 1.215-.93.31-.4.53-.845.66-1.335.14-.5.21-1.01.21-1.53 0-.71-.125-1.36-.375-1.95-.25-.6-.665-1.08-1.245-1.44-.57-.36-1.345-.54-2.325-.54h-1.245v8.07zM42.35 33.5v-6.885h1.68V33.5h-1.68zm.84-8.175c-.31 0-.57-.105-.78-.315-.2-.21-.3-.47-.3-.78 0-.28.1-.52.3-.72.21-.2.47-.3.78-.3.31 0 .565.1.765.3.21.2.315.44.315.72 0 .31-.105.57-.315.78-.2.21-.455.315-.765.315zm5.16 8.325c-.32 0-.655-.03-1.005-.09a7.716 7.716 0 01-.945-.225c-.28-.1-.495-.205-.645-.315l.54-1.275c.17.12.425.255.765.405.35.15.78.225 1.29.225.45 0 .755-.065.915-.195.16-.14.24-.3.24-.48 0-.19-.07-.335-.21-.435a1.87 1.87 0 00-.57-.3c-.25-.09-.545-.2-.885-.33-.33-.14-.645-.3-.945-.48a2.56 2.56 0 01-.735-.69c-.18-.28-.27-.62-.27-1.02 0-.65.25-1.145.75-1.485.5-.35 1.16-.525 1.98-.525.42 0 .825.045 1.215.135.4.09.7.205.9.345l-.585 1.29c-.12-.12-.32-.23-.6-.33-.27-.1-.595-.15-.975-.15-.71 0-1.065.215-1.065.645 0 .21.075.38.225.51.16.12.365.225.615.315.26.08.54.18.84.3.61.24 1.075.52 1.395.84.33.31.495.725.495 1.245 0 .47-.125.86-.375 1.17-.25.31-.585.54-1.005.69-.41.14-.86.21-1.35.21zm7.475 0c-.67 0-1.28-.145-1.83-.435-.54-.29-.975-.71-1.305-1.26-.32-.55-.48-1.21-.48-1.98 0-.72.145-1.345.435-1.875.3-.53.715-.94 1.245-1.23.54-.29 1.16-.435 1.86-.435.58 0 1.055.075 1.425.225.38.15.665.31.855.48l-.72 1.305c-.04-.05-.12-.125-.24-.225s-.28-.19-.48-.27a1.642 1.642 0 00-.705-.135c-.66 0-1.155.2-1.485.6-.32.4-.48.915-.48 1.545 0 .73.17 1.305.51 1.725.35.41.835.615 1.455.615.33 0 .64-.045.93-.135.29-.1.51-.205.66-.315l.585 1.14c-.18.14-.465.285-.855.435-.39.15-.85.225-1.38.225zm6.71 0c-.72 0-1.356-.16-1.906-.48-.54-.32-.96-.755-1.26-1.305-.3-.55-.45-1.16-.45-1.83 0-.66.145-1.26.435-1.8.3-.55.72-.985 1.26-1.305.54-.33 1.18-.495 1.92-.495s1.38.165 1.92.495c.54.32.955.755 1.245 1.305.29.54.435 1.14.435 1.8 0 .67-.15 1.28-.45 1.83-.29.55-.705.985-1.245 1.305-.54.32-1.175.48-1.905.48zm.044-1.32c.6 0 1.06-.22 1.38-.66.33-.44.495-.975.495-1.605 0-.43-.08-.815-.24-1.155-.16-.35-.39-.63-.69-.84a1.717 1.717 0 00-1.035-.315c-.39 0-.725.105-1.005.315-.28.21-.5.49-.66.84-.15.34-.225.725-.225 1.155 0 .42.085.805.255 1.155.17.34.4.61.69.81.3.2.645.3 1.035.3zm7.498 1.17l-3.63-6.885h1.845l1.485 3.105.48 1.245.48-1.245 1.47-3.105h1.8L70.391 33.5h-.315zm7.927.15c-.86 0-1.56-.165-2.1-.495a3.047 3.047 0 01-1.185-1.335 4.192 4.192 0 01-.375-1.755c0-.75.15-1.395.45-1.935.31-.54.735-.955 1.275-1.245.54-.3 1.15-.45 1.83-.45 1.09 0 1.885.305 2.385.915.5.6.75 1.41.75 2.43 0 .27-.015.55-.045.84h-4.95c.11.62.33 1.065.66 1.335.34.26.79.39 1.35.39.54 0 .965-.05 1.275-.15.31-.1.565-.2.765-.3l.495 1.155c-.2.13-.51.265-.93.405-.42.13-.97.195-1.65.195zm-1.965-4.155h3.42c.01-.65-.135-1.095-.435-1.335s-.69-.36-1.17-.36c-.5 0-.91.135-1.23.405-.31.26-.505.69-.585 1.29zm6.546 4.005v-6.885h1.62v1.35c.16-.45.415-.815.765-1.095.36-.29.775-.435 1.245-.435.32 0 .54.03.66.09l-.225 1.635c-.09-.06-.285-.09-.585-.09-.25 0-.52.055-.81.165-.29.11-.54.305-.75.585-.2.27-.3.65-.3 1.14v3.54h-1.62zm9.187 0V22.475h1.575v4.14l-.06 1.275c.18-.41.475-.755.885-1.035.42-.28.92-.42 1.5-.42.74 0 1.295.155 1.665.465.37.3.615.73.735 1.29.13.56.195 1.225.195 1.995V33.5h-1.605v-3.33c0-.8-.08-1.395-.24-1.785-.16-.39-.525-.585-1.095-.585-.28 0-.575.09-.885.27-.3.17-.555.425-.765.765-.21.33-.315.745-.315 1.245v3.42h-1.59zm11.676.15c-.86 0-1.56-.165-2.1-.495a3.047 3.047 0 01-1.185-1.335 4.198 4.198 0 01-.375-1.755c0-.75.15-1.395.45-1.935.31-.54.735-.955 1.275-1.245.54-.3 1.15-.45 1.83-.45 1.09 0 1.885.305 2.385.915.5.6.75 1.41.75 2.43 0 .27-.015.55-.045.84h-4.95c.11.62.33 1.065.66 1.335.34.26.79.39 1.35.39.54 0 .965-.05 1.275-.15.31-.1.565-.2.765-.3l.495 1.155c-.2.13-.51.265-.93.405-.42.13-.97.195-1.65.195zm-1.965-4.155h3.42c.01-.65-.135-1.095-.435-1.335s-.69-.36-1.17-.36c-.5 0-.91.135-1.23.405-.31.26-.505.69-.585 1.29zm6.546 4.005v-6.885h1.62v1.35c.16-.45.415-.815.765-1.095.36-.29.775-.435 1.245-.435.32 0 .54.03.66.09l-.225 1.635c-.09-.06-.285-.09-.585-.09-.25 0-.52.055-.81.165-.29.11-.54.305-.75.585-.2.27-.3.65-.3 1.14v3.54h-1.62zm9.188 0V22.475h1.575v4.14l-.06 1.275c.18-.41.475-.755.885-1.035.42-.28.92-.42 1.5-.42.74 0 1.295.155 1.665.465.37.3.615.73.735 1.29.13.56.195 1.225.195 1.995V33.5h-1.605v-3.33c0-.8-.08-1.395-.24-1.785-.16-.39-.525-.585-1.095-.585-.28 0-.575.09-.885.27-.3.17-.555.425-.765.765-.21.33-.315.745-.315 1.245v3.42h-1.59zm8.394 0v-6.885h1.68V33.5h-1.68zm.84-8.175c-.31 0-.57-.105-.78-.315-.2-.21-.3-.47-.3-.78 0-.28.1-.52.3-.72.21-.2.47-.3.78-.3.31 0 .565.1.765.3.21.2.315.44.315.72 0 .31-.105.57-.315.78-.2.21-.455.315-.765.315zm5.16 8.325c-.32 0-.655-.03-1.005-.09a7.716 7.716 0 01-.945-.225c-.28-.1-.495-.205-.645-.315l.54-1.275c.17.12.425.255.765.405.35.15.78.225 1.29.225.45 0 .755-.065.915-.195.16-.14.24-.3.24-.48 0-.19-.07-.335-.21-.435a1.87 1.87 0 00-.57-.3c-.25-.09-.545-.2-.885-.33-.33-.14-.645-.3-.945-.48a2.56 2.56 0 01-.735-.69c-.18-.28-.27-.62-.27-1.02 0-.65.25-1.145.75-1.485.5-.35 1.16-.525 1.98-.525.42 0 .825.045 1.215.135.4.09.7.205.9.345l-.585 1.29c-.12-.12-.32-.23-.6-.33-.27-.1-.595-.15-.975-.15-.71 0-1.065.215-1.065.645 0 .21.075.38.225.51.16.12.365.225.615.315.26.08.54.18.84.3.61.24 1.075.52 1.395.84.33.31.495.725.495 1.245 0 .47-.125.86-.375 1.17-.25.31-.585.54-1.005.69-.41.14-.86.21-1.35.21zm4.851-.15v-5.565h-1.215v-1.32h1.215V23.81l1.635-.36v3.165h1.59v1.32h-1.59V33.5h-1.635zm7.576.15c-.72 0-1.355-.16-1.905-.48-.54-.32-.96-.755-1.26-1.305-.3-.55-.45-1.16-.45-1.83 0-.66.145-1.26.435-1.8.3-.55.72-.985 1.26-1.305.54-.33 1.18-.495 1.92-.495s1.38.165 1.92.495c.54.32.955.755 1.245 1.305.29.54.435 1.14.435 1.8 0 .67-.15 1.28-.45 1.83-.29.55-.705.985-1.245 1.305-.54.32-1.175.48-1.905.48zm.045-1.32c.6 0 1.06-.22 1.38-.66.33-.44.495-.975.495-1.605 0-.43-.08-.815-.24-1.155-.16-.35-.39-.63-.69-.84a1.717 1.717 0 00-1.035-.315c-.39 0-.725.105-1.005.315-.28.21-.5.49-.66.84-.15.34-.225.725-.225 1.155 0 .42.085.805.255 1.155.17.34.4.61.69.81.3.2.645.3 1.035.3zm5.123 1.17v-6.885h1.62v1.35c.16-.45.415-.815.765-1.095.36-.29.775-.435 1.245-.435.32 0 .54.03.66.09l-.225 1.635c-.09-.06-.285-.09-.585-.09-.25 0-.52.055-.81.165-.29.11-.54.305-.75.585-.2.27-.3.65-.3 1.14v3.54h-1.62zm6.063 3.78l1.485-3.57-2.85-7.095h1.83l1.47 4.38.33 1.065.33-1.065 1.545-4.38h1.77l-4.23 10.665h-1.68z" fill="#000"/></svg>