<svg width="344" height="59" fill="none" xmlns="http://www.w3.org/2000/svg"><rect width="344" height="59" rx="20" fill="#A8C7D0"/><path d="M39.686 36V24.975h4.83v1.47H41.35v3.045h2.55v1.5h-2.55v3.525h3.66V36h-5.325zm6.619 0v-6.885h1.59l.015 1.26c.18-.41.47-.75.87-1.02.41-.28.9-.42 1.47-.42.74 0 1.295.155 1.665.465.37.3.615.73.735 1.29.13.56.195 1.225.195 1.995V36h-1.62v-3.27c0-.8-.08-1.41-.24-1.83-.15-.42-.505-.63-1.065-.63-.29 0-.59.09-.9.27-.31.18-.57.44-.78.78-.21.34-.315.76-.315 1.26V36h-1.62zm14.674.15c-.32 0-.655-.03-1.005-.09a7.716 7.716 0 01-.945-.225c-.28-.1-.495-.205-.645-.315l.54-1.275c.17.12.425.255.765.405.35.15.78.225 1.29.225.45 0 .755-.065.915-.195.16-.14.24-.3.24-.48 0-.19-.07-.335-.21-.435a1.87 1.87 0 00-.57-.3c-.25-.09-.545-.2-.885-.33-.33-.14-.645-.3-.945-.48a2.56 2.56 0 01-.735-.69c-.18-.28-.27-.62-.27-1.02 0-.65.25-1.145.75-1.485.5-.35 1.16-.525 1.98-.525.42 0 .825.045 1.215.135.4.09.7.205.9.345l-.585 1.29c-.12-.12-.32-.23-.6-.33-.27-.1-.595-.15-.975-.15-.71 0-1.065.215-1.065.645 0 .21.075.38.225.51.16.12.365.225.615.315.26.08.54.18.84.3.61.24 1.075.52 1.395.84.33.31.495.725.495 1.245 0 .47-.125.86-.375 1.17-.25.31-.585.54-1.005.69-.41.14-.86.21-1.35.21zm7.311 0c-.61 0-1.18-.145-1.71-.435-.52-.29-.94-.705-1.26-1.245-.32-.54-.48-1.185-.48-1.935 0-.72.135-1.35.405-1.89.28-.54.67-.96 1.17-1.26.51-.3 1.115-.45 1.815-.45.42 0 .8.075 1.14.225.35.14.64.315.87.525.24.2.4.395.48.585l.03-1.155h1.545V36h-1.53l-.03-1.215c-.1.22-.27.435-.51.645-.23.21-.51.385-.84.525-.33.13-.695.195-1.095.195zm.27-1.35c.37 0 .705-.085 1.005-.255.31-.18.555-.43.735-.75.19-.32.285-.7.285-1.14v-.105c0-.45-.095-.84-.285-1.17-.18-.34-.425-.6-.735-.78a1.84 1.84 0 00-1.005-.285c-.67 0-1.175.215-1.515.645-.33.43-.495.96-.495 1.59 0 .64.165 1.175.495 1.605.34.43.845.645 1.515.645zm8.317 1.2l-3.63-6.885h1.845l1.485 3.105.48 1.245.48-1.245 1.47-3.105h1.8L77.192 36h-.315zm7.853.15c-.72 0-1.355-.16-1.905-.48-.54-.32-.96-.755-1.26-1.305-.3-.55-.45-1.16-.45-1.83 0-.66.145-1.26.435-1.8.3-.55.72-.985 1.26-1.305.54-.33 1.18-.495 1.92-.495s1.38.165 1.92.495c.54.32.955.755 1.245 1.305.29.54.435 1.14.435 1.8 0 .67-.15 1.28-.45 1.83-.29.55-.705.985-1.245 1.305-.54.32-1.175.48-1.905.48zm.045-1.32c.6 0 1.06-.22 1.38-.66.33-.44.495-.975.495-1.605 0-.43-.08-.815-.24-1.155-.16-.35-.39-.63-.69-.84a1.717 1.717 0 00-1.035-.315c-.39 0-.725.105-1.005.315-.28.21-.5.49-.66.84-.15.34-.225.725-.225 1.155 0 .42.085.805.255 1.155.17.34.4.61.69.81.3.2.645.3 1.035.3zM89.96 36v-6.885h1.68V36h-1.68zm.84-8.175c-.31 0-.57-.105-.78-.315-.2-.21-.3-.47-.3-.78 0-.28.1-.52.3-.72.21-.2.47-.3.78-.3.31 0 .565.1.765.3.21.2.315.44.315.72 0 .31-.105.57-.315.78-.2.21-.455.315-.765.315zM93.56 36v-6.885h1.62v1.35c.16-.45.415-.815.765-1.095.36-.29.775-.435 1.245-.435.32 0 .54.03.66.09l-.225 1.635c-.09-.06-.285-.09-.585-.09-.25 0-.52.055-.81.165-.29.11-.54.305-.75.585-.2.27-.3.65-.3 1.14V36h-1.62zm9.142 3.645v-10.53h1.56v1.275c.23-.41.55-.755.96-1.035.42-.28.96-.42 1.62-.42.62 0 1.175.13 1.665.39s.875.655 1.155 1.185c.29.53.435 1.2.435 2.01 0 .74-.15 1.385-.45 1.935-.3.54-.7.96-1.2 1.26-.5.29-1.06.435-1.68.435-.59 0-1.095-.105-1.515-.315-.42-.21-.75-.5-.99-.87v4.68h-1.56zm3.69-4.86c.68 0 1.185-.215 1.515-.645.34-.43.51-.955.51-1.575 0-.65-.17-1.185-.51-1.605-.33-.42-.835-.63-1.515-.63-.36 0-.695.085-1.005.255-.31.17-.56.415-.75.735-.19.32-.285.705-.285 1.155v.105c0 .44.095.83.285 1.17.19.33.44.585.75.765.31.18.645.27 1.005.27zm5.38 1.215V24.975h1.605V36h-1.605zm6 .15c-.69 0-1.215-.145-1.575-.435a2.165 2.165 0 01-.735-1.155c-.12-.48-.18-1.01-.18-1.59v-3.855h1.62v3.45c0 .53.03.96.09 1.29.07.33.2.575.39.735.2.15.495.225.885.225.28 0 .545-.075.795-.225.26-.16.475-.375.645-.645.17-.28.255-.59.255-.93v-3.9h1.605V36h-1.32l-.18-1.005c-.25.38-.56.67-.93.87-.37.19-.825.285-1.365.285zm8.115 0c-.32 0-.655-.03-1.005-.09a7.716 7.716 0 01-.945-.225c-.28-.1-.495-.205-.645-.315l.54-1.275c.17.12.425.255.765.405.35.15.78.225 1.29.225.45 0 .755-.065.915-.195.16-.14.24-.3.24-.48 0-.19-.07-.335-.21-.435a1.87 1.87 0 00-.57-.3c-.25-.09-.545-.2-.885-.33-.33-.14-.645-.3-.945-.48a2.56 2.56 0 01-.735-.69c-.18-.28-.27-.62-.27-1.02 0-.65.25-1.145.75-1.485.5-.35 1.16-.525 1.98-.525.42 0 .825.045 1.215.135.4.09.7.205.9.345l-.585 1.29c-.12-.12-.32-.23-.6-.33-.27-.1-.595-.15-.975-.15-.71 0-1.065.215-1.065.645 0 .21.075.38.225.51.16.12.365.225.615.315.26.08.54.18.84.3.61.24 1.075.52 1.395.84.33.31.495.725.495 1.245 0 .47-.125.86-.375 1.17-.25.31-.585.54-1.005.69-.41.14-.86.21-1.35.21zm10.459 0c-.32 0-.655-.03-1.005-.09a7.716 7.716 0 01-.945-.225c-.28-.1-.495-.205-.645-.315l.54-1.275c.17.12.425.255.765.405.35.15.78.225 1.29.225.45 0 .755-.065.915-.195.16-.14.24-.3.24-.48 0-.19-.07-.335-.21-.435a1.87 1.87 0 00-.57-.3c-.25-.09-.545-.2-.885-.33-.33-.14-.645-.3-.945-.48a2.56 2.56 0 01-.735-.69c-.18-.28-.27-.62-.27-1.02 0-.65.25-1.145.75-1.485.5-.35 1.16-.525 1.98-.525.42 0 .825.045 1.215.135.4.09.7.205.9.345l-.585 1.29c-.12-.12-.32-.23-.6-.33-.27-.1-.595-.15-.975-.15-.71 0-1.065.215-1.065.645 0 .21.075.38.225.51.16.12.365.225.615.315.26.08.54.18.84.3.61.24 1.075.52 1.395.84.33.31.495.725.495 1.245 0 .47-.125.86-.375 1.17-.25.31-.585.54-1.005.69-.41.14-.86.21-1.35.21zm6.694 0c-.69 0-1.215-.145-1.575-.435a2.165 2.165 0 01-.735-1.155c-.12-.48-.18-1.01-.18-1.59v-3.855h1.62v3.45c0 .53.03.96.09 1.29.07.33.2.575.39.735.2.15.495.225.885.225.28 0 .545-.075.795-.225.26-.16.475-.375.645-.645.17-.28.255-.59.255-.93v-3.9h1.605V36h-1.32l-.18-1.005c-.25.38-.56.67-.93.87-.37.19-.825.285-1.365.285zm5.715-.15v-6.885h1.62v1.35c.16-.45.415-.815.765-1.095.36-.29.775-.435 1.245-.435.32 0 .54.03.66.09l-.225 1.635c-.09-.06-.285-.09-.585-.09-.25 0-.52.055-.81.165-.29.11-.54.305-.75.585-.2.27-.3.65-.3 1.14V36h-1.62zm9.247 0V24.975h1.605V36h-1.605zm6.9.15c-.86 0-1.56-.165-2.1-.495a3.047 3.047 0 01-1.185-1.335 4.192 4.192 0 01-.375-1.755c0-.75.15-1.395.45-1.935.31-.54.735-.955 1.275-1.245.54-.3 1.15-.45 1.83-.45 1.09 0 1.885.305 2.385.915.5.6.75 1.41.75 2.43 0 .27-.015.55-.045.84h-4.95c.11.62.33 1.065.66 1.335.34.26.79.39 1.35.39.54 0 .965-.05 1.275-.15.31-.1.565-.2.765-.3l.495 1.155c-.2.13-.51.265-.93.405-.42.13-.97.195-1.65.195zm-1.965-4.155h3.42c.01-.65-.135-1.095-.435-1.335s-.69-.36-1.17-.36c-.5 0-.91.135-1.23.405-.31.26-.505.69-.585 1.29zm8.887 4.155c-.32 0-.655-.03-1.005-.09a7.716 7.716 0 01-.945-.225c-.28-.1-.495-.205-.645-.315l.54-1.275c.17.12.425.255.765.405.35.15.78.225 1.29.225.45 0 .755-.065.915-.195.16-.14.24-.3.24-.48 0-.19-.07-.335-.21-.435a1.87 1.87 0 00-.57-.3c-.25-.09-.545-.2-.885-.33-.33-.14-.645-.3-.945-.48a2.56 2.56 0 01-.735-.69c-.18-.28-.27-.62-.27-1.02 0-.65.25-1.145.75-1.485.5-.35 1.16-.525 1.98-.525.42 0 .825.045 1.215.135.4.09.7.205.9.345l-.585 1.29c-.12-.12-.32-.23-.6-.33-.27-.1-.595-.15-.975-.15-.71 0-1.065.215-1.065.645 0 .21.075.38.225.51.16.12.365.225.615.315.26.08.54.18.84.3.61.24 1.075.52 1.395.84.33.31.495.725.495 1.245 0 .47-.125.86-.375 1.17-.25.31-.585.54-1.005.69-.41.14-.86.21-1.35.21zm8.734-.15v-5.595h-1.11v-1.29h1.11V27.63c0-.89.215-1.585.645-2.085.43-.5 1.07-.75 1.92-.75.27 0 .51.04.72.12.22.08.365.135.435.165l-.315 1.53a1.06 1.06 0 00-.3-.21.895.895 0 00-.495-.135c-.14 0-.29.03-.45.09-.15.05-.28.17-.39.36-.11.18-.17.465-.18.855v1.545h1.62v1.29h-1.62V36h-1.59zm7.664.15c-.86 0-1.56-.165-2.1-.495a3.047 3.047 0 01-1.185-1.335 4.192 4.192 0 01-.375-1.755c0-.75.15-1.395.45-1.935.31-.54.735-.955 1.275-1.245.54-.3 1.15-.45 1.83-.45 1.09 0 1.885.305 2.385.915.5.6.75 1.41.75 2.43 0 .27-.015.55-.045.84h-4.95c.11.62.33 1.065.66 1.335.34.26.79.39 1.35.39.54 0 .965-.05 1.275-.15.31-.1.565-.2.765-.3l.495 1.155c-.2.13-.51.265-.93.405-.42.13-.97.195-1.65.195zm-1.965-4.155h3.42c.01-.65-.135-1.095-.435-1.335s-.69-.36-1.17-.36c-.5 0-.91.135-1.23.405-.31.26-.505.69-.585 1.29zM192.804 36v-6.885h1.62v1.245c.23-.49.56-.85.99-1.08.43-.23.91-.345 1.44-.345.68.01 1.195.13 1.545.36.35.23.59.535.72.915.22-.39.55-.7.99-.93a2.97 2.97 0 011.395-.345c.75 0 1.305.145 1.665.435.37.28.61.69.72 1.23.12.53.18 1.18.18 1.95V36h-1.635v-3.465c0-.77-.08-1.34-.24-1.71-.15-.37-.47-.555-.96-.555-.66 0-1.145.22-1.455.66-.31.44-.465.99-.465 1.65V36h-1.62v-3.705c0-.43-.02-.795-.06-1.095-.03-.3-.135-.53-.315-.69-.17-.16-.465-.24-.885-.24-.35 0-.68.105-.99.315-.3.21-.545.49-.735.84-.18.34-.27.725-.27 1.155V36h-1.635zm13.154 0v-6.885h1.62v1.245c.23-.49.56-.85.99-1.08.43-.23.91-.345 1.44-.345.68.01 1.195.13 1.545.36.35.23.59.535.72.915.22-.39.55-.7.99-.93a2.97 2.97 0 011.395-.345c.75 0 1.305.145 1.665.435.37.28.61.69.72 1.23.12.53.18 1.18.18 1.95V36h-1.635v-3.465c0-.77-.08-1.34-.24-1.71-.15-.37-.47-.555-.96-.555-.66 0-1.145.22-1.455.66-.31.44-.465.99-.465 1.65V36h-1.62v-3.705c0-.43-.02-.795-.06-1.095-.03-.3-.135-.53-.315-.69-.17-.16-.465-.24-.885-.24-.35 0-.68.105-.99.315-.3.21-.545.49-.735.84-.18.34-.27.725-.27 1.155V36h-1.635zm16.453.15c-.86 0-1.56-.165-2.1-.495a3.047 3.047 0 01-1.185-1.335 4.192 4.192 0 01-.375-1.755c0-.75.15-1.395.45-1.935.31-.54.735-.955 1.275-1.245.54-.3 1.15-.45 1.83-.45 1.09 0 1.885.305 2.385.915.5.6.75 1.41.75 2.43 0 .27-.015.55-.045.84h-4.95c.11.62.33 1.065.66 1.335.34.26.79.39 1.35.39.54 0 .965-.05 1.275-.15.31-.1.565-.2.765-.3l.495 1.155c-.2.13-.51.265-.93.405-.42.13-.97.195-1.65.195zm-1.965-4.155h3.42c.01-.65-.135-1.095-.435-1.335s-.69-.36-1.17-.36c-.5 0-.91.135-1.23.405-.31.26-.505.69-.585 1.29zm8.888 4.155c-.32 0-.655-.03-1.005-.09a7.716 7.716 0 01-.945-.225c-.28-.1-.495-.205-.645-.315l.54-1.275c.17.12.425.255.765.405.35.15.78.225 1.29.225.45 0 .755-.065.915-.195.16-.14.24-.3.24-.48 0-.19-.07-.335-.21-.435a1.87 1.87 0 00-.57-.3c-.25-.09-.545-.2-.885-.33-.33-.14-.645-.3-.945-.48a2.56 2.56 0 01-.735-.69c-.18-.28-.27-.62-.27-1.02 0-.65.25-1.145.75-1.485.5-.35 1.16-.525 1.98-.525.42 0 .825.045 1.215.135.4.09.7.205.9.345l-.585 1.29c-.12-.12-.32-.23-.6-.33-.27-.1-.595-.15-.975-.15-.71 0-1.065.215-1.065.645 0 .21.075.38.225.51.16.12.365.225.615.315.26.08.54.18.84.3.61.24 1.075.52 1.395.84.33.31.495.725.495 1.245 0 .47-.125.86-.375 1.17-.25.31-.585.54-1.005.69-.41.14-.86.21-1.35.21zm11.134 0c-.61 0-1.18-.145-1.71-.435-.52-.29-.94-.705-1.26-1.245-.32-.54-.48-1.185-.48-1.935 0-.73.135-1.36.405-1.89.28-.54.67-.96 1.17-1.26.51-.3 1.115-.45 1.815-.45a3 3 0 011.125.21c.35.13.65.305.9.525.25.22.43.46.54.72l-.075-1.17v-4.245h1.59V36h-1.545l-.03-1.215c-.1.22-.27.435-.51.645-.23.21-.51.385-.84.525-.33.13-.695.195-1.095.195zm.27-1.365c.37 0 .705-.085 1.005-.255.31-.18.555-.43.735-.75.19-.32.285-.7.285-1.14v-.105c0-.45-.095-.84-.285-1.17-.18-.34-.425-.6-.735-.78a1.84 1.84 0 00-1.005-.285c-.67 0-1.175.215-1.515.645-.33.43-.495.96-.495 1.59 0 .64.165 1.175.495 1.605.34.43.845.645 1.515.645zm9.022 1.365c-.86 0-1.56-.165-2.1-.495a3.047 3.047 0 01-1.185-1.335 4.192 4.192 0 01-.375-1.755c0-.75.15-1.395.45-1.935.31-.54.735-.955 1.275-1.245.54-.3 1.15-.45 1.83-.45 1.09 0 1.885.305 2.385.915.5.6.75 1.41.75 2.43 0 .27-.015.55-.045.84h-4.95c.11.62.33 1.065.66 1.335.34.26.79.39 1.35.39.54 0 .965-.05 1.275-.15.31-.1.565-.2.765-.3l.495 1.155c-.2.13-.51.265-.93.405-.42.13-.97.195-1.65.195zm-1.965-4.155h3.42c.01-.65-.135-1.095-.435-1.335s-.69-.36-1.17-.36c-.5 0-.91.135-1.23.405-.31.26-.505.69-.585 1.29zm12.74 4.155c-.32 0-.655-.03-1.005-.09a7.716 7.716 0 01-.945-.225c-.28-.1-.495-.205-.645-.315l.54-1.275c.17.12.425.255.765.405.35.15.78.225 1.29.225.45 0 .755-.065.915-.195.16-.14.24-.3.24-.48 0-.19-.07-.335-.21-.435a1.87 1.87 0 00-.57-.3c-.25-.09-.545-.2-.885-.33-.33-.14-.645-.3-.945-.48a2.56 2.56 0 01-.735-.69c-.18-.28-.27-.62-.27-1.02 0-.65.25-1.145.75-1.485.5-.35 1.16-.525 1.98-.525.42 0 .825.045 1.215.135.4.09.7.205.9.345l-.585 1.29c-.12-.12-.32-.23-.6-.33-.27-.1-.595-.15-.975-.15-.71 0-1.065.215-1.065.645 0 .21.075.38.225.51.16.12.365.225.615.315.26.08.54.18.84.3.61.24 1.075.52 1.395.84.33.31.495.725.495 1.245 0 .47-.125.86-.375 1.17-.25.31-.585.54-1.005.69-.41.14-.86.21-1.35.21zm7.476 0c-.67 0-1.28-.145-1.83-.435-.54-.29-.975-.71-1.305-1.26-.32-.55-.48-1.21-.48-1.98 0-.72.145-1.345.435-1.875.3-.53.715-.94 1.245-1.23.54-.29 1.16-.435 1.86-.435.58 0 1.055.075 1.425.225.38.15.665.31.855.48l-.72 1.305c-.04-.05-.12-.125-.24-.225s-.28-.19-.48-.27a1.642 1.642 0 00-.705-.135c-.66 0-1.155.2-1.485.6-.32.4-.48.915-.48 1.545 0 .73.17 1.305.51 1.725.35.41.835.615 1.455.615.33 0 .64-.045.93-.135.29-.1.51-.205.66-.315l.585 1.14c-.18.14-.465.285-.855.435-.39.15-.85.225-1.38.225zm3.795-.15v-6.885h1.68V36h-1.68zm.84-8.175c-.31 0-.57-.105-.78-.315-.2-.21-.3-.47-.3-.78 0-.28.1-.52.3-.72.21-.2.47-.3.78-.3.31 0 .565.1.765.3.21.2.315.44.315.72 0 .31-.105.57-.315.78-.2.21-.455.315-.765.315zm6.132 8.325c-.86 0-1.56-.165-2.1-.495a3.047 3.047 0 01-1.185-1.335 4.192 4.192 0 01-.375-1.755c0-.75.15-1.395.45-1.935.31-.54.735-.955 1.275-1.245.54-.3 1.15-.45 1.83-.45 1.09 0 1.885.305 2.385.915.5.6.75 1.41.75 2.43 0 .27-.015.55-.045.84h-4.95c.11.62.33 1.065.66 1.335.34.26.79.39 1.35.39.54 0 .965-.05 1.275-.15.31-.1.565-.2.765-.3l.495 1.155c-.2.13-.51.265-.93.405-.42.13-.97.195-1.65.195zm-1.965-4.155h3.42c.01-.65-.135-1.095-.435-1.335s-.69-.36-1.17-.36c-.5 0-.91.135-1.23.405-.31.26-.505.69-.585 1.29zM283.36 36v-6.885h1.59l.015 1.26c.18-.41.47-.75.87-1.02.41-.28.9-.42 1.47-.42.74 0 1.295.155 1.665.465.37.3.615.73.735 1.29.13.56.195 1.225.195 1.995V36h-1.62v-3.27c0-.8-.08-1.41-.24-1.83-.15-.42-.505-.63-1.065-.63-.29 0-.59.09-.9.27-.31.18-.57.44-.78.78-.21.34-.315.76-.315 1.26V36h-1.62zm11.677.15c-.67 0-1.28-.145-1.83-.435-.54-.29-.975-.71-1.305-1.26-.32-.55-.48-1.21-.48-1.98 0-.72.145-1.345.435-1.875.3-.53.715-.94 1.245-1.23.54-.29 1.16-.435 1.86-.435.58 0 1.055.075 1.425.225.38.15.665.31.855.48l-.72 1.305c-.04-.05-.12-.125-.24-.225s-.28-.19-.48-.27a1.642 1.642 0 00-.705-.135c-.66 0-1.155.2-1.485.6-.32.4-.48.915-.48 1.545 0 .73.17 1.305.51 1.725.35.41.835.615 1.455.615.33 0 .64-.045.93-.135.29-.1.51-.205.66-.315l.585 1.14c-.18.14-.465.285-.855.435-.39.15-.85.225-1.38.225zm6.769 0c-.86 0-1.56-.165-2.1-.495a3.047 3.047 0 01-1.185-1.335 4.192 4.192 0 01-.375-1.755c0-.75.15-1.395.45-1.935.31-.54.735-.955 1.275-1.245.54-.3 1.15-.45 1.83-.45 1.09 0 1.885.305 2.385.915.5.6.75 1.41.75 2.43 0 .27-.015.55-.045.84h-4.95c.11.62.33 1.065.66 1.335.34.26.79.39 1.35.39.54 0 .965-.05 1.275-.15.31-.1.565-.2.765-.3l.495 1.155c-.2.13-.51.265-.93.405-.42.13-.97.195-1.65.195zm-1.965-4.155h3.42c.01-.65-.135-1.095-.435-1.335s-.69-.36-1.17-.36c-.5 0-.91.135-1.23.405-.31.26-.505.69-.585 1.29z" fill="#000"/></svg>