<svg width="36" height="33" fill="none" xmlns="http://www.w3.org/2000/svg"><path d="M16.31 23.986c.457.608 1.904 1.97 4.03 2.559 4.429 1.303 7.63.114 8.676-.643 1.015-.557 3.323-2.107 4.442-3.851 1.119-1.745 1.686-3.204 1.83-3.716.247-1.666.577-5.52-.076-7.598-.653-2.079-2.626-4.903-3.53-6.056-1.285-1.09-4.26-3.36-5.88-3.719S21.9.172 20.961 0c-1.969.095-6.09.355-6.824.632-2.167.59-4.485 1.809-5.373 2.345-.76.515-2.569 1.944-3.713 3.536-1.536 1.58-2.61 3.714-2.956 4.584C1.602 12.25.547 14.98.277 16.663c-.27 1.684-.293 5.154-.27 6.68.3 2.227 1.09 7.12 1.845 8.869.202.279.633.286.823.255l3.182-.23c1.283-.307 4.036-1.09 4.785-1.76.749-.67 1.625-1.795 1.969-2.275.657-1.148 2.317-3.6 3.699-4.217z" fill="#312E2C"/></svg>